<mxfile host="app.diagrams.net" modified="2022-06-06T09:44:01.718Z" agent="5.0 (Windows NT 10.0; Win64; x64) AppleWebKit/537.36 (KHTML, like Gecko) Chrome/102.0.0.0 Safari/537.36" etag="hkeD8lAiMlnxhsahM6Ak" version="19.0.0" type="github">
  <diagram id="Tym4I2ePUdt9SY9PQDoQ" name="第 1 页">
    <mxGraphModel dx="1221" dy="654" grid="0" gridSize="10" guides="1" tooltips="1" connect="1" arrows="1" fold="1" page="1" pageScale="1" pageWidth="827" pageHeight="1169" math="0" shadow="0">
      <root>
        <mxCell id="0" />
        <mxCell id="1" parent="0" />
        <mxCell id="a4vEm1wac4h2UvTmXm-i-44" value="" style="rounded=0;whiteSpace=wrap;html=1;fontSize=14;fillColor=#ffe6cc;strokeColor=#d79b00;" vertex="1" parent="1">
          <mxGeometry x="127" y="43" width="400" height="492" as="geometry" />
        </mxCell>
        <mxCell id="a4vEm1wac4h2UvTmXm-i-2" value="" style="rounded=0;whiteSpace=wrap;html=1;fillColor=#f5f5f5;fontColor=#333333;strokeColor=#666666;" vertex="1" parent="1">
          <mxGeometry x="143" y="52" width="130" height="474" as="geometry" />
        </mxCell>
        <mxCell id="a4vEm1wac4h2UvTmXm-i-3" value="" style="rounded=1;whiteSpace=wrap;html=1;fillColor=#cce5ff;strokeColor=#36393d;" vertex="1" parent="1">
          <mxGeometry x="148" y="63" width="120" height="22" as="geometry" />
        </mxCell>
        <mxCell id="a4vEm1wac4h2UvTmXm-i-6" value="" style="rounded=1;whiteSpace=wrap;html=1;fontStyle=0;fillColor=#cce5ff;strokeColor=#36393d;" vertex="1" parent="1">
          <mxGeometry x="148" y="300" width="120" height="60" as="geometry" />
        </mxCell>
        <mxCell id="a4vEm1wac4h2UvTmXm-i-7" value="" style="rounded=1;whiteSpace=wrap;html=1;fontStyle=0;fillColor=#cce5ff;strokeColor=#36393d;" vertex="1" parent="1">
          <mxGeometry x="148" y="379" width="120" height="60" as="geometry" />
        </mxCell>
        <mxCell id="a4vEm1wac4h2UvTmXm-i-8" value="" style="rounded=1;whiteSpace=wrap;html=1;fontStyle=0;fillColor=#cce5ff;strokeColor=#36393d;" vertex="1" parent="1">
          <mxGeometry x="148" y="458" width="120" height="60" as="geometry" />
        </mxCell>
        <mxCell id="a4vEm1wac4h2UvTmXm-i-11" value="省&lt;br&gt;略&lt;br&gt;若&lt;br&gt;干&lt;br&gt;分&lt;br&gt;区" style="text;html=1;strokeColor=none;fillColor=none;align=center;verticalAlign=middle;whiteSpace=wrap;rounded=0;" vertex="1" parent="1">
          <mxGeometry x="178" y="201" width="49" height="88" as="geometry" />
        </mxCell>
        <mxCell id="a4vEm1wac4h2UvTmXm-i-12" value="" style="rounded=1;whiteSpace=wrap;html=1;fillColor=#cce5ff;strokeColor=#36393d;" vertex="1" parent="1">
          <mxGeometry x="148" y="98" width="120" height="22" as="geometry" />
        </mxCell>
        <mxCell id="a4vEm1wac4h2UvTmXm-i-13" value="" style="rounded=1;whiteSpace=wrap;html=1;fillColor=#cce5ff;strokeColor=#36393d;" vertex="1" parent="1">
          <mxGeometry x="148" y="133" width="120" height="22" as="geometry" />
        </mxCell>
        <mxCell id="a4vEm1wac4h2UvTmXm-i-14" value="" style="rounded=1;whiteSpace=wrap;html=1;fillColor=#cce5ff;strokeColor=#36393d;" vertex="1" parent="1">
          <mxGeometry x="148" y="167" width="120" height="22" as="geometry" />
        </mxCell>
        <mxCell id="a4vEm1wac4h2UvTmXm-i-19" value="recovery fs" style="text;html=1;strokeColor=none;fillColor=none;align=center;verticalAlign=middle;whiteSpace=wrap;rounded=0;fontSize=14;" vertex="1" parent="1">
          <mxGeometry x="152" y="379" width="71" height="23" as="geometry" />
        </mxCell>
        <mxCell id="a4vEm1wac4h2UvTmXm-i-20" value="recovery&amp;nbsp;" style="text;html=1;strokeColor=none;fillColor=none;align=center;verticalAlign=middle;whiteSpace=wrap;rounded=0;fontSize=14;" vertex="1" parent="1">
          <mxGeometry x="148" y="300" width="71" height="23" as="geometry" />
        </mxCell>
        <mxCell id="a4vEm1wac4h2UvTmXm-i-21" value="" style="rounded=0;whiteSpace=wrap;html=1;fillColor=#f5f5f5;fontColor=#333333;strokeColor=#666666;" vertex="1" parent="1">
          <mxGeometry x="381" y="52" width="130" height="474" as="geometry" />
        </mxCell>
        <mxCell id="a4vEm1wac4h2UvTmXm-i-22" value="" style="rounded=1;whiteSpace=wrap;html=1;fillColor=#cce5ff;strokeColor=#36393d;" vertex="1" parent="1">
          <mxGeometry x="386" y="63" width="120" height="22" as="geometry" />
        </mxCell>
        <mxCell id="a4vEm1wac4h2UvTmXm-i-23" value="" style="rounded=1;whiteSpace=wrap;html=1;fontStyle=0;fillColor=#cce5ff;strokeColor=#36393d;" vertex="1" parent="1">
          <mxGeometry x="386" y="300" width="120" height="60" as="geometry" />
        </mxCell>
        <mxCell id="a4vEm1wac4h2UvTmXm-i-24" value="" style="rounded=1;whiteSpace=wrap;html=1;fontStyle=0;fillColor=#cce5ff;strokeColor=#36393d;" vertex="1" parent="1">
          <mxGeometry x="386" y="379" width="120" height="60" as="geometry" />
        </mxCell>
        <mxCell id="a4vEm1wac4h2UvTmXm-i-25" value="" style="rounded=1;whiteSpace=wrap;html=1;fontStyle=0;fillColor=#cce5ff;strokeColor=#36393d;" vertex="1" parent="1">
          <mxGeometry x="386" y="458" width="120" height="60" as="geometry" />
        </mxCell>
        <mxCell id="a4vEm1wac4h2UvTmXm-i-26" value="省&lt;br&gt;略&lt;br&gt;若&lt;br&gt;干&lt;br&gt;分&lt;br&gt;区" style="text;html=1;strokeColor=none;fillColor=none;align=center;verticalAlign=middle;whiteSpace=wrap;rounded=0;" vertex="1" parent="1">
          <mxGeometry x="416" y="201" width="49" height="88" as="geometry" />
        </mxCell>
        <mxCell id="a4vEm1wac4h2UvTmXm-i-27" value="" style="rounded=1;whiteSpace=wrap;html=1;fillColor=#cce5ff;strokeColor=#36393d;" vertex="1" parent="1">
          <mxGeometry x="386" y="98" width="120" height="22" as="geometry" />
        </mxCell>
        <mxCell id="a4vEm1wac4h2UvTmXm-i-28" value="" style="rounded=1;whiteSpace=wrap;html=1;fillColor=#cce5ff;strokeColor=#36393d;" vertex="1" parent="1">
          <mxGeometry x="386" y="133" width="120" height="22" as="geometry" />
        </mxCell>
        <mxCell id="a4vEm1wac4h2UvTmXm-i-29" value="" style="rounded=1;whiteSpace=wrap;html=1;fillColor=#cce5ff;strokeColor=#36393d;" vertex="1" parent="1">
          <mxGeometry x="386" y="167" width="120" height="22" as="geometry" />
        </mxCell>
        <mxCell id="a4vEm1wac4h2UvTmXm-i-30" value="升级包片段1" style="rounded=0;whiteSpace=wrap;html=1;fontSize=14;fillColor=#ffcc99;strokeColor=#36393d;" vertex="1" parent="1">
          <mxGeometry x="391" y="482" width="110" height="31" as="geometry" />
        </mxCell>
        <mxCell id="a4vEm1wac4h2UvTmXm-i-31" value="data" style="text;html=1;strokeColor=none;fillColor=none;align=center;verticalAlign=middle;whiteSpace=wrap;rounded=0;fontSize=14;" vertex="1" parent="1">
          <mxGeometry x="376" y="458" width="60" height="30" as="geometry" />
        </mxCell>
        <mxCell id="a4vEm1wac4h2UvTmXm-i-36" value="" style="rounded=0;whiteSpace=wrap;html=1;fontSize=14;fillColor=#cdeb8b;strokeColor=#36393d;" vertex="1" parent="1">
          <mxGeometry x="154" y="461" width="108" height="54" as="geometry" />
        </mxCell>
        <mxCell id="a4vEm1wac4h2UvTmXm-i-32" value="recovery fs" style="text;html=1;strokeColor=none;fillColor=none;align=center;verticalAlign=middle;whiteSpace=wrap;rounded=0;fontSize=14;" vertex="1" parent="1">
          <mxGeometry x="390" y="379" width="71" height="23" as="geometry" />
        </mxCell>
        <mxCell id="a4vEm1wac4h2UvTmXm-i-33" value="recovery&amp;nbsp;" style="text;html=1;strokeColor=none;fillColor=none;align=center;verticalAlign=middle;whiteSpace=wrap;rounded=0;fontSize=14;" vertex="1" parent="1">
          <mxGeometry x="386" y="300" width="71" height="23" as="geometry" />
        </mxCell>
        <mxCell id="a4vEm1wac4h2UvTmXm-i-18" value="data" style="text;html=1;strokeColor=none;fillColor=none;align=center;verticalAlign=middle;whiteSpace=wrap;rounded=0;fontSize=14;" vertex="1" parent="1">
          <mxGeometry x="140" y="455" width="60" height="30" as="geometry" />
        </mxCell>
        <mxCell id="a4vEm1wac4h2UvTmXm-i-17" value="升级包" style="rounded=0;whiteSpace=wrap;html=1;fontSize=14;fillColor=#ffcc99;strokeColor=#36393d;" vertex="1" parent="1">
          <mxGeometry x="200" y="475" width="55" height="35" as="geometry" />
        </mxCell>
        <mxCell id="a4vEm1wac4h2UvTmXm-i-38" value="升级包片段2" style="rounded=0;whiteSpace=wrap;html=1;fontSize=14;fillColor=#ffcc99;strokeColor=#36393d;" vertex="1" parent="1">
          <mxGeometry x="390" y="400" width="113" height="32" as="geometry" />
        </mxCell>
        <mxCell id="a4vEm1wac4h2UvTmXm-i-39" value="升级包片段3" style="rounded=0;whiteSpace=wrap;html=1;fontSize=14;fillColor=#ffcc99;strokeColor=#36393d;" vertex="1" parent="1">
          <mxGeometry x="391" y="323" width="112" height="31" as="geometry" />
        </mxCell>
        <mxCell id="a4vEm1wac4h2UvTmXm-i-42" value="" style="shape=singleArrow;whiteSpace=wrap;html=1;fontSize=14;fillColor=#f5f5f5;fontColor=#333333;strokeColor=#666666;" vertex="1" parent="1">
          <mxGeometry x="282" y="262" width="90" height="66" as="geometry" />
        </mxCell>
      </root>
    </mxGraphModel>
  </diagram>
</mxfile>
